<?xml version='1.0' encoding='UTF-8' standalone='no'?>
<!-- Created with Fritzing (http://www.fritzing.org/) -->
<svg xmlns="http://www.w3.org/2000/svg"  width="1.8in" x="0in" version="1.2" y="0in" height="3.57in" viewBox="0 0 1800 3570" baseProfile="tiny" id="0">
 <desc   id="0.0">
  <referenceFile   id="0.0.0">generic_ic_dip_22_schem.svg</referenceFile>
 </desc>
 <g   id="schematic">
  <rect  width="1180" x="315" y="15" fill="none"  height="3540" stroke="#000000" stroke-linejoin="round" stroke-linecap="round" id="0.1.0" stroke-width="30"/>
  <text  x="900" y="465" font-family="DroidSans" fill="#000000"  text-anchor="middle" stroke="none" id="label" font-size="235">LCM1602 IIC</text>
  <line  fill="none"  stroke="#000000" stroke-linejoin="round" stroke-linecap="round" id="0.1.2" y1="315" stroke-width="30" x1="15" y2="315" x2="300"/>
  <rect  width="300" x="0" y="300" fill="none"  height="30" stroke="none" id="connector0pin" stroke-width="0"/>
  <rect  width="30" x="0" y="300" fill="none"  height="30" stroke="none" id="connector0terminal" stroke-width="0"/>
  <text  x="390" y="350" font-family="DroidSans" fill="#000000"  text-anchor="start" stroke="none" id="label0" font-size="130">1</text>
  <line  fill="none"  stroke="#000000" stroke-linejoin="round" stroke-linecap="round" id="0.1.6" y1="315" stroke-width="30" x1="1500" y2="315" x2="1785"/>
  <rect  width="300" x="1500" y="300" fill="none"  height="30" stroke="none" id="connector21pin" stroke-width="0"/>
  <rect  width="30" x="1770" y="300" fill="none"  height="30" stroke="none" id="connector21terminal" stroke-width="0"/>
  <text  x="1410" y="350" font-family="DroidSans" fill="#000000"  text-anchor="end" stroke="none" id="label21" font-size="130">22</text>
  <line  fill="none"  stroke="#000000" stroke-linejoin="round" stroke-linecap="round" id="0.1.10" y1="610" stroke-width="30" x1="15" y2="610" x2="300"/>
  <rect  width="300" x="0" y="595" fill="none"  height="30" stroke="none" id="connector1pin" stroke-width="0"/>
  <rect  width="30" x="0" y="595" fill="none"  height="30" stroke="none" id="connector1terminal" stroke-width="0"/>
  <text  x="390" y="645" font-family="DroidSans" fill="#000000"  text-anchor="start" stroke="none" id="label1" font-size="130">2</text>
  <line  fill="none"  stroke="#000000" stroke-linejoin="round" stroke-linecap="round" id="0.1.14" y1="610" stroke-width="30" x1="1500" y2="610" x2="1785"/>
  <rect  width="300" x="1500" y="595" fill="none"  height="30" stroke="none" id="connector20pin" stroke-width="0"/>
  <rect  width="30" x="1770" y="595" fill="none"  height="30" stroke="none" id="connector20terminal" stroke-width="0"/>
  <text  x="1410" y="645" font-family="DroidSans" fill="#000000"  text-anchor="end" stroke="none" id="label20" font-size="130">21</text>
  <line  fill="none"  stroke="#000000" stroke-linejoin="round" stroke-linecap="round" id="0.1.18" y1="905" stroke-width="30" x1="15" y2="905" x2="300"/>
  <rect  width="300" x="0" y="890" fill="none"  height="30" stroke="none" id="connector2pin" stroke-width="0"/>
  <rect  width="30" x="0" y="890" fill="none"  height="30" stroke="none" id="connector2terminal" stroke-width="0"/>
  <text  x="390" y="940" font-family="DroidSans" fill="#000000"  text-anchor="start" stroke="none" id="label2" font-size="130">3</text>
  <line  fill="none"  stroke="#000000" stroke-linejoin="round" stroke-linecap="round" id="0.1.22" y1="905" stroke-width="30" x1="1500" y2="905" x2="1785"/>
  <rect  width="300" x="1500" y="890" fill="none"  height="30" stroke="none" id="connector19pin" stroke-width="0"/>
  <rect  width="30" x="1770" y="890" fill="none"  height="30" stroke="none" id="connector19terminal" stroke-width="0"/>
  <text  x="1410" y="940" font-family="DroidSans" fill="#000000"  text-anchor="end" stroke="none" id="label19" font-size="130">20</text>
  <line  fill="none"  stroke="#000000" stroke-linejoin="round" stroke-linecap="round" id="0.1.26" y1="1200" stroke-width="30" x1="15" y2="1200" x2="300"/>
  <rect  width="300" x="0" y="1185" fill="none"  height="30" stroke="none" id="connector3pin" stroke-width="0"/>
  <rect  width="30" x="0" y="1185" fill="none"  height="30" stroke="none" id="connector3terminal" stroke-width="0"/>
  <text  x="390" y="1235" font-family="DroidSans" fill="#000000"  text-anchor="start" stroke="none" id="label3" font-size="130">4</text>
  <line  fill="none"  stroke="#000000" stroke-linejoin="round" stroke-linecap="round" id="0.1.30" y1="1200" stroke-width="30" x1="1500" y2="1200" x2="1785"/>
  <rect  width="300" x="1500" y="1185" fill="none"  height="30" stroke="none" id="connector18pin" stroke-width="0"/>
  <rect  width="30" x="1770" y="1185" fill="none"  height="30" stroke="none" id="connector18terminal" stroke-width="0"/>
  <text  x="1410" y="1235" font-family="DroidSans" fill="#000000"  text-anchor="end" stroke="none" id="label18" font-size="130">19</text>
  <line  fill="none"  stroke="#000000" stroke-linejoin="round" stroke-linecap="round" id="0.1.34" y1="1495" stroke-width="30" x1="15" y2="1495" x2="300"/>
  <rect  width="300" x="0" y="1480" fill="none"  height="30" stroke="none" id="connector4pin" stroke-width="0"/>
  <rect  width="30" x="0" y="1480" fill="none"  height="30" stroke="none" id="connector4terminal" stroke-width="0"/>
  <text  x="390" y="1530" font-family="DroidSans" fill="#000000"  text-anchor="start" stroke="none" id="label4" font-size="130">5</text>
  <line  fill="none"  stroke="#000000" stroke-linejoin="round" stroke-linecap="round" id="0.1.38" y1="1495" stroke-width="30" x1="1500" y2="1495" x2="1785"/>
  <rect  width="300" x="1500" y="1480" fill="none"  height="30" stroke="none" id="connector17pin" stroke-width="0"/>
  <rect  width="30" x="1770" y="1480" fill="none"  height="30" stroke="none" id="connector17terminal" stroke-width="0"/>
  <text  x="1410" y="1530" font-family="DroidSans" fill="#000000"  text-anchor="end" stroke="none" id="label17" font-size="130">18</text>
  <line  fill="none"  stroke="#000000" stroke-linejoin="round" stroke-linecap="round" id="0.1.42" y1="1790" stroke-width="30" x1="15" y2="1790" x2="300"/>
  <rect  width="300" x="0" y="1775" fill="none"  height="30" stroke="none" id="connector5pin" stroke-width="0"/>
  <rect  width="30" x="0" y="1775" fill="none"  height="30" stroke="none" id="connector5terminal" stroke-width="0"/>
  <text  x="390" y="1825" font-family="DroidSans" fill="#000000"  text-anchor="start" stroke="none" id="label5" font-size="130">6</text>
  <line  fill="none"  stroke="#000000" stroke-linejoin="round" stroke-linecap="round" id="0.1.46" y1="1790" stroke-width="30" x1="1500" y2="1790" x2="1785"/>
  <rect  width="300" x="1500" y="1775" fill="none"  height="30" stroke="none" id="connector16pin" stroke-width="0"/>
  <rect  width="30" x="1770" y="1775" fill="none"  height="30" stroke="none" id="connector16terminal" stroke-width="0"/>
  <text  x="1410" y="1825" font-family="DroidSans" fill="#000000"  text-anchor="end" stroke="none" id="label16" font-size="130">17</text>
  <line  fill="none"  stroke="#000000" stroke-linejoin="round" stroke-linecap="round" id="0.1.50" y1="2085" stroke-width="30" x1="15" y2="2085" x2="300"/>
  <rect  width="300" x="0" y="2070" fill="none"  height="30" stroke="none" id="connector6pin" stroke-width="0"/>
  <rect  width="30" x="0" y="2070" fill="none"  height="30" stroke="none" id="connector6terminal" stroke-width="0"/>
  <text  x="390" y="2120" font-family="DroidSans" fill="#000000"  text-anchor="start" stroke="none" id="label6" font-size="130">7</text>
  <line  fill="none"  stroke="#000000" stroke-linejoin="round" stroke-linecap="round" id="0.1.54" y1="2085" stroke-width="30" x1="1500" y2="2085" x2="1785"/>
  <rect  width="300" x="1500" y="2070" fill="none"  height="30" stroke="none" id="connector15pin" stroke-width="0"/>
  <rect  width="30" x="1770" y="2070" fill="none"  height="30" stroke="none" id="connector15terminal" stroke-width="0"/>
  <text  x="1410" y="2120" font-family="DroidSans" fill="#000000"  text-anchor="end" stroke="none" id="label15" font-size="130">16</text>
  <line  fill="none"  stroke="#000000" stroke-linejoin="round" stroke-linecap="round" id="0.1.58" y1="2380" stroke-width="30" x1="15" y2="2380" x2="300"/>
  <rect  width="300" x="0" y="2365" fill="none"  height="30" stroke="none" id="connector7pin" stroke-width="0"/>
  <rect  width="30" x="0" y="2365" fill="none"  height="30" stroke="none" id="connector7terminal" stroke-width="0"/>
  <text  x="390" y="2415" font-family="DroidSans" fill="#000000"  text-anchor="start" stroke="none" id="label7" font-size="130">8</text>
  <line  fill="none"  stroke="#000000" stroke-linejoin="round" stroke-linecap="round" id="0.1.62" y1="2380" stroke-width="30" x1="1500" y2="2380" x2="1785"/>
  <rect  width="300" x="1500" y="2365" fill="none"  height="30" stroke="none" id="connector14pin" stroke-width="0"/>
  <rect  width="30" x="1770" y="2365" fill="none"  height="30" stroke="none" id="connector14terminal" stroke-width="0"/>
  <text  x="1410" y="2415" font-family="DroidSans" fill="#000000"  text-anchor="end" stroke="none" id="label14" font-size="130">15</text>
  <line  fill="none"  stroke="#000000" stroke-linejoin="round" stroke-linecap="round" id="0.1.66" y1="2675" stroke-width="30" x1="15" y2="2675" x2="300"/>
  <rect  width="300" x="0" y="2660" fill="none"  height="30" stroke="none" id="connector8pin" stroke-width="0"/>
  <rect  width="30" x="0" y="2660" fill="none"  height="30" stroke="none" id="connector8terminal" stroke-width="0"/>
  <text  x="390" y="2710" font-family="DroidSans" fill="#000000"  text-anchor="start" stroke="none" id="label8" font-size="130">9</text>
  <line  fill="none"  stroke="#000000" stroke-linejoin="round" stroke-linecap="round" id="0.1.70" y1="2675" stroke-width="30" x1="1500" y2="2675" x2="1785"/>
  <rect  width="300" x="1500" y="2660" fill="none"  height="30" stroke="none" id="connector13pin" stroke-width="0"/>
  <rect  width="30" x="1770" y="2660" fill="none"  height="30" stroke="none" id="connector13terminal" stroke-width="0"/>
  <text  x="1410" y="2710" font-family="DroidSans" fill="#000000"  text-anchor="end" stroke="none" id="label13" font-size="130">14</text>
  <line  fill="none"  stroke="#000000" stroke-linejoin="round" stroke-linecap="round" id="0.1.74" y1="2970" stroke-width="30" x1="15" y2="2970" x2="300"/>
  <rect  width="300" x="0" y="2955" fill="none"  height="30" stroke="none" id="connector9pin" stroke-width="0"/>
  <rect  width="30" x="0" y="2955" fill="none"  height="30" stroke="none" id="connector9terminal" stroke-width="0"/>
  <text  x="390" y="3005" font-family="DroidSans" fill="#000000"  text-anchor="start" stroke="none" id="label9" font-size="130">10</text>
  <line  fill="none"  stroke="#000000" stroke-linejoin="round" stroke-linecap="round" id="0.1.78" y1="2970" stroke-width="30" x1="1500" y2="2970" x2="1785"/>
  <rect  width="300" x="1500" y="2955" fill="none"  height="30" stroke="none" id="connector12pin" stroke-width="0"/>
  <rect  width="30" x="1770" y="2955" fill="none"  height="30" stroke="none" id="connector12terminal" stroke-width="0"/>
  <text  x="1410" y="3005" font-family="DroidSans" fill="#000000"  text-anchor="end" stroke="none" id="label12" font-size="130">13</text>
  <line  fill="none"  stroke="#000000" stroke-linejoin="round" stroke-linecap="round" id="0.1.82" y1="3265" stroke-width="30" x1="15" y2="3265" x2="300"/>
  <rect  width="300" x="0" y="3250" fill="none"  height="30" stroke="none" id="connector10pin" stroke-width="0"/>
  <rect  width="30" x="0" y="3250" fill="none"  height="30" stroke="none" id="connector10terminal" stroke-width="0"/>
  <text  x="390" y="3300" font-family="DroidSans" fill="#000000"  text-anchor="start" stroke="none" id="label10" font-size="130">11</text>
  <line  fill="none"  stroke="#000000" stroke-linejoin="round" stroke-linecap="round" id="0.1.86" y1="3265" stroke-width="30" x1="1500" y2="3265" x2="1785"/>
  <rect  width="300" x="1500" y="3250" fill="none"  height="30" stroke="none" id="connector11pin" stroke-width="0"/>
  <rect  width="30" x="1770" y="3250" fill="none"  height="30" stroke="none" id="connector11terminal" stroke-width="0"/>
  <text  x="1410" y="3300" font-family="DroidSans" fill="#000000"  text-anchor="end" stroke="none" id="label11" font-size="130">12</text>
 </g>
</svg>
