<?xml version='1.0' encoding='UTF-8' standalone='no'?>
<!-- Created with Fritzing (http://www.fritzing.org/) -->
<svg xmlns="http://www.w3.org/2000/svg"  width="283.4649" x="0in" version="1.2" y="0in" height="170.41907" viewBox="0 0 226.77201 136.33505" id="0">
 <desc   id="0.0" oldid="0.0">
  <referenceFile   id="0.0.0" oldid="0.0.0">LCD4x20.svg</referenceFile>
 </desc>
 <metadata   id="0.1" oldid="0.1">
  <rdf:RDF xmlns:rdf="http://www.w3.org/1999/02/22-rdf-syntax-ns#"  id="0.1.0" oldid="0.1.0">
   <cc:Work xmlns:cc="http://creativecommons.org/ns#"  rdf:about="" xmlns:rdf="http://www.w3.org/1999/02/22-rdf-syntax-ns#" id="0.1.0.0" oldid="0.1.0.0">
    <dc:format xmlns:dc="http://purl.org/dc/elements/1.1/"  id="0.1.0.0.0" oldid="0.1.0.0.0">image/svg+xml</dc:format>
    <dc:type xmlns:dc="http://purl.org/dc/elements/1.1/"  id="0.1.0.0.1" oldid="0.1.0.0.1" rdf:resource="http://purl.org/dc/dcmitype/StillImage" xmlns:rdf="http://www.w3.org/1999/02/22-rdf-syntax-ns#"/>
   </cc:Work>
  </rdf:RDF>
 </metadata>
 <defs   id="0.2" oldid="0.2"/>
 <g   id="g4368" transform="matrix(0.80000027,0,0,0.80000027,-179.18552,-333.80354)">
  <path   style="fill:#1f7a34" id="path3642" d="m 223.98183,417.25411 0,127.359 283.46491,0 0,-127.359 -283.46491,0 z m 141.2862,2.59717 c 0.9575,0 1.73375,0.77504 1.73375,1.73104 0,0.956 -0.77625,1.73104 -1.73375,1.73104 -0.95749,0 -1.73374,-0.77504 -1.73374,-1.73104 0,-0.956 0.7775,-1.73104 1.73374,-1.73104 z m -89.99872,0 c 0.9575,0 1.73375,0.77504 1.73375,1.73104 0,0.956 -0.77625,1.73104 -1.73375,1.73104 -0.9575,0 -1.73375,-0.77504 -1.73375,-1.73104 0,-0.956 0.7775,-1.73104 1.73375,-1.73104 z m -8.99999,0 c 0.9575,0 1.73375,0.77504 1.73375,1.73104 0,0.956 -0.77625,1.73104 -1.73375,1.73104 -0.9575,0 -1.73375,-0.77504 -1.73375,-1.73104 0,-0.956 0.77625,-1.73104 1.73375,-1.73104 z m -34.10999,2.06552 c 1.97,0 3.5675,1.59375 3.5675,3.56191 0,1.96816 -1.5975,3.56067 -3.5675,3.56067 -1.97,0 -3.5675,-1.59375 -3.5675,-3.56067 0,-1.96692 1.5975,-3.56191 3.5675,-3.56191 z m 0.004,118.06856 c -1.97,0 -3.5675,-1.59499 -3.5675,-3.5619 0,-1.96692 1.5975,-3.56193 3.5675,-3.56193 1.97,0 3.5675,1.59376 3.5675,3.56193 -0.001,1.96691 -1.5975,3.5619 -3.5675,3.5619 z m 16.10624,-116.67325 c -0.9575,0 -1.73375,-0.77504 -1.73375,-1.73104 0,-0.956 0.77625,-1.73103 1.73375,-1.73103 0.9575,0 1.73375,0.77503 1.73375,1.73103 0,0.956 -0.7775,1.73104 -1.73375,1.73104 z m 7.26625,-1.72979 c 0,-0.956 0.77625,-1.73104 1.73375,-1.73104 0.9575,0 1.73375,0.77504 1.73375,1.73104 0,0.956 -0.77625,1.73104 -1.73375,1.73104 -0.9575,0 -1.73375,-0.77629 -1.73375,-1.73104 z m 22.46999,107.79593 -20.41624,0 0,-6.01056 20.41624,0 0,6.01056 z m 0,-90.87871 -20.41624,0 0,-6.01057 20.41624,0 0,6.01057 z m 6.2625,-15.18743 c -0.9575,0 -1.73375,-0.77504 -1.73375,-1.73104 0,-0.956 0.77625,-1.73103 1.73375,-1.73103 0.9575,0 1.73375,0.77503 1.73375,1.73103 0,0.956 -0.77625,1.73104 -1.73375,1.73104 z m 9.00125,0 c -0.9575,0 -1.73375,-0.77504 -1.73375,-1.73104 0,-0.956 0.77625,-1.73103 1.73375,-1.73103 0.9575,0 1.73375,0.77503 1.73375,1.73103 0,0.956 -0.7775,1.73104 -1.73375,1.73104 z m 9,0 c -0.9575,0 -1.73375,-0.77504 -1.73375,-1.73104 0,-0.956 0.77625,-1.73103 1.73375,-1.73103 0.9575,0 1.73374,0.77503 1.73374,1.73103 0,0.956 -0.77624,1.73104 -1.73374,1.73104 z m 8.99999,0 c -0.9575,0 -1.73375,-0.77504 -1.73375,-1.73104 0,-0.956 0.77625,-1.73103 1.73375,-1.73103 0.9575,0 1.73375,0.77503 1.73375,1.73103 0,0.956 -0.77625,1.73104 -1.73375,1.73104 z m 8.99875,0 c -0.9575,0 -1.73375,-0.77504 -1.73375,-1.73104 0,-0.956 0.77625,-1.73103 1.73375,-1.73103 0.9575,0 1.73375,0.77503 1.73375,1.73103 0,0.956 -0.77625,1.73104 -1.73375,1.73104 z m 9,0 c -0.9575,0 -1.73375,-0.77504 -1.73375,-1.73104 0,-0.956 0.77625,-1.73103 1.73375,-1.73103 0.9575,0 1.73375,0.77503 1.73375,1.73103 0,0.956 -0.77625,1.73104 -1.73375,1.73104 z m 9.00124,0 c -0.9575,0 -1.73375,-0.77504 -1.73375,-1.73104 0,-0.956 0.77625,-1.73103 1.73375,-1.73103 0.9575,0 1.73375,0.77503 1.73375,1.73103 0,0.956 -0.7775,1.73104 -1.73375,1.73104 z m 9,0 c -0.9575,0 -1.73375,-0.77504 -1.73375,-1.73104 0,-0.956 0.77625,-1.73103 1.73375,-1.73103 0.9575,0 1.73375,0.77503 1.73375,1.73103 0,0.956 -0.77625,1.73104 -1.73375,1.73104 z m 7.265,-1.72979 c 0,-0.956 0.77625,-1.73104 1.73375,-1.73104 0.9575,0 1.73375,0.77504 1.73375,1.73104 0,0.956 -0.77625,1.73104 -1.73375,1.73104 -0.9575,0 -1.73375,-0.77629 -1.73375,-1.73104 z m 21.38874,107.79593 -20.41749,0 0,-6.01056 20.41749,0 0,6.01056 z m 0,-90.87871 -20.41749,0 0,-6.01057 20.41749,0 0,6.01057 z m -1.655,-15.18743 c -0.9575,0 -1.73375,-0.77504 -1.73375,-1.73104 0,-0.956 0.77625,-1.73103 1.73375,-1.73103 0.9575,0 1.73375,0.77503 1.73375,1.73103 0,0.956 -0.77625,1.73104 -1.73375,1.73104 z m 9.00125,0 c -0.9575,0 -1.73375,-0.77504 -1.73375,-1.73104 0,-0.956 0.77625,-1.73103 1.73375,-1.73103 0.9575,0 1.73375,0.77503 1.73375,1.73103 0,0.956 -0.77625,1.73104 -1.73375,1.73104 z m 90.56872,106.06614 -20.41499,0 0,-6.01056 20.41499,0 0,6.01056 z m 0,-90.87871 -20.41499,0 0,-6.01057 20.41499,0 0,6.01057 z m 25.40374,-16.58898 c 1.97,0 3.5675,1.59375 3.5675,3.56191 0,1.96817 -1.59625,3.56192 -3.5675,3.56192 -1.97125,0 -3.56875,-1.59375 -3.56875,-3.56192 0,-1.96816 1.5975,-3.56191 3.56875,-3.56191 z m 0,118.07606 c -1.97,0 -3.5675,-1.59375 -3.5675,-3.56193 0,-1.96565 1.59625,-3.5619 3.5675,-3.5619 1.97125,0 3.56875,1.595 3.56875,3.5619 0,1.96693 -1.59875,3.56193 -3.56875,3.56193 z"/>
  <path   style="fill:#1f7a34" id="path4366" d="m 223.98183,460.31418 0,127.359 283.46491,0 0,-127.359 -283.46491,0 z m 141.2862,2.59717 c 0.9575,0 1.73375,0.77504 1.73375,1.73104 0,0.956 -0.77625,1.73104 -1.73375,1.73104 -0.95749,0 -1.73374,-0.77504 -1.73374,-1.73104 0,-0.956 0.7775,-1.73104 1.73374,-1.73104 z m -89.99872,0 c 0.9575,0 1.73375,0.77504 1.73375,1.73104 0,0.956 -0.77625,1.73104 -1.73375,1.73104 -0.9575,0 -1.73375,-0.77504 -1.73375,-1.73104 0,-0.956 0.7775,-1.73104 1.73375,-1.73104 z m -8.99999,0 c 0.9575,0 1.73375,0.77504 1.73375,1.73104 0,0.956 -0.77625,1.73104 -1.73375,1.73104 -0.9575,0 -1.73375,-0.77504 -1.73375,-1.73104 0,-0.956 0.77625,-1.73104 1.73375,-1.73104 z m -34.10999,2.06552 c 1.97,0 3.5675,1.59375 3.5675,3.56191 0,1.96816 -1.5975,3.56067 -3.5675,3.56067 -1.97,0 -3.5675,-1.59375 -3.5675,-3.56067 0,-1.96692 1.5975,-3.56191 3.5675,-3.56191 z m 0.004,118.06856 c -1.97,0 -3.5675,-1.59499 -3.5675,-3.5619 0,-1.96692 1.5975,-3.56193 3.5675,-3.56193 1.97,0 3.5675,1.59376 3.5675,3.56193 -0.001,1.96691 -1.5975,3.5619 -3.5675,3.5619 z m 16.10624,-116.67325 c -0.9575,0 -1.73375,-0.77504 -1.73375,-1.73104 0,-0.956 0.77625,-1.73103 1.73375,-1.73103 0.9575,0 1.73375,0.77503 1.73375,1.73103 0,0.956 -0.7775,1.73104 -1.73375,1.73104 z m 7.26625,-1.72979 c 0,-0.956 0.77625,-1.73104 1.73375,-1.73104 0.9575,0 1.73375,0.77504 1.73375,1.73104 0,0.956 -0.77625,1.73104 -1.73375,1.73104 -0.9575,0 -1.73375,-0.77629 -1.73375,-1.73104 z m 22.46999,107.79593 -20.41624,0 0,-6.01056 20.41624,0 0,6.01056 z m 0,-90.87871 -20.41624,0 0,-6.01057 20.41624,0 0,6.01057 z m 6.2625,-15.18743 c -0.9575,0 -1.73375,-0.77504 -1.73375,-1.73104 0,-0.956 0.77625,-1.73103 1.73375,-1.73103 0.9575,0 1.73375,0.77503 1.73375,1.73103 0,0.956 -0.77625,1.73104 -1.73375,1.73104 z m 9.00125,0 c -0.9575,0 -1.73375,-0.77504 -1.73375,-1.73104 0,-0.956 0.77625,-1.73103 1.73375,-1.73103 0.9575,0 1.73375,0.77503 1.73375,1.73103 0,0.956 -0.7775,1.73104 -1.73375,1.73104 z m 9,0 c -0.9575,0 -1.73375,-0.77504 -1.73375,-1.73104 0,-0.956 0.77625,-1.73103 1.73375,-1.73103 0.9575,0 1.73374,0.77503 1.73374,1.73103 0,0.956 -0.77624,1.73104 -1.73374,1.73104 z m 8.99999,0 c -0.9575,0 -1.73375,-0.77504 -1.73375,-1.73104 0,-0.956 0.77625,-1.73103 1.73375,-1.73103 0.9575,0 1.73375,0.77503 1.73375,1.73103 0,0.956 -0.77625,1.73104 -1.73375,1.73104 z m 8.99875,0 c -0.9575,0 -1.73375,-0.77504 -1.73375,-1.73104 0,-0.956 0.77625,-1.73103 1.73375,-1.73103 0.9575,0 1.73375,0.77503 1.73375,1.73103 0,0.956 -0.77625,1.73104 -1.73375,1.73104 z m 9,0 c -0.9575,0 -1.73375,-0.77504 -1.73375,-1.73104 0,-0.956 0.77625,-1.73103 1.73375,-1.73103 0.9575,0 1.73375,0.77503 1.73375,1.73103 0,0.956 -0.77625,1.73104 -1.73375,1.73104 z m 9.00124,0 c -0.9575,0 -1.73375,-0.77504 -1.73375,-1.73104 0,-0.956 0.77625,-1.73103 1.73375,-1.73103 0.9575,0 1.73375,0.77503 1.73375,1.73103 0,0.956 -0.7775,1.73104 -1.73375,1.73104 z m 9,0 c -0.9575,0 -1.73375,-0.77504 -1.73375,-1.73104 0,-0.956 0.77625,-1.73103 1.73375,-1.73103 0.9575,0 1.73375,0.77503 1.73375,1.73103 0,0.956 -0.77625,1.73104 -1.73375,1.73104 z m 7.265,-1.72979 c 0,-0.956 0.77625,-1.73104 1.73375,-1.73104 0.9575,0 1.73375,0.77504 1.73375,1.73104 0,0.956 -0.77625,1.73104 -1.73375,1.73104 -0.9575,0 -1.73375,-0.77629 -1.73375,-1.73104 z m 21.38874,107.79593 -20.41749,0 0,-6.01056 20.41749,0 0,6.01056 z m 0,-90.87871 -20.41749,0 0,-6.01057 20.41749,0 0,6.01057 z m -1.655,-15.18743 c -0.9575,0 -1.73375,-0.77504 -1.73375,-1.73104 0,-0.956 0.77625,-1.73103 1.73375,-1.73103 0.9575,0 1.73375,0.77503 1.73375,1.73103 0,0.956 -0.77625,1.73104 -1.73375,1.73104 z m 9.00125,0 c -0.9575,0 -1.73375,-0.77504 -1.73375,-1.73104 0,-0.956 0.77625,-1.73103 1.73375,-1.73103 0.9575,0 1.73375,0.77503 1.73375,1.73103 0,0.956 -0.77625,1.73104 -1.73375,1.73104 z m 90.56872,106.06614 -20.41499,0 0,-6.01056 20.41499,0 0,6.01056 z m 0,-90.87871 -20.41499,0 0,-6.01057 20.41499,0 0,6.01057 z m 25.40374,-16.58898 c 1.97,0 3.5675,1.59375 3.5675,3.56191 0,1.96817 -1.59625,3.56192 -3.5675,3.56192 -1.97125,0 -3.56875,-1.59375 -3.56875,-3.56192 0,-1.96816 1.5975,-3.56191 3.56875,-3.56191 z m 0,118.07606 c -1.97,0 -3.5675,-1.59375 -3.5675,-3.56193 0,-1.96565 1.59625,-3.5619 3.5675,-3.5619 1.97125,0 3.56875,1.595 3.56875,3.5619 0,1.96693 -1.59875,3.56193 -3.56875,3.56193 z"/>
 </g>
 <g   id="breadboard" transform="translate(-0.02081344,0.06279915)">
  <g   id="svg">
   <g   id="g3640">
    <g   id="g3644">
     <path   style="fill:#9a916c" id="path3646" d="m 1.581,6.59 c 0,2.737 2.223,4.961 4.96,4.961 2.742,0 4.961,-2.224 4.961,-4.961 0,-2.741 -2.219,-4.96 -4.961,-4.96 -2.737,0 -4.96,2.219 -4.96,4.96 z m 2.107,0 c 0,-1.576 1.278,-2.854 2.854,-2.854 1.576,0 2.854,1.277 2.854,2.854 0,1.577 -1.279,2.853 -2.855,2.853 -1.575,0 -2.853,-1.277 -2.853,-2.853 z"/>
    </g>
    <g   id="g3648" transform="translate(0,34.079924)">
     <g   id="g3650">
      <path   style="fill:#9a916c" id="path3652" d="m 225.168,95.486 c 0,-2.737 -2.223,-4.961 -4.961,-4.961 -2.742,0 -4.961,2.224 -4.961,4.961 0,2.741 2.219,4.96 4.961,4.96 2.739,0 4.961,-2.218 4.961,-4.96 z m -2.105,0 c 0,1.576 -1.279,2.854 -2.855,2.854 -1.576,0 -2.854,-1.277 -2.854,-2.854 0,-1.575 1.277,-2.854 2.854,-2.854 1.577,0 2.855,1.279 2.855,2.854 z"/>
     </g>
    </g>
    <g   id="g3654" transform="translate(0,34.079924)">
     <g   id="g3656">
      <path   style="fill:#9a916c" id="path3658" d="m 1.584,95.485 c 0,2.737 2.223,4.961 4.96,4.961 2.742,0 4.961,-2.224 4.961,-4.961 0,-2.741 -2.219,-4.96 -4.961,-4.96 -2.737,0 -4.96,2.219 -4.96,4.96 z m 2.106,0 c 0,-1.576 1.278,-2.854 2.854,-2.854 1.576,0 2.854,1.277 2.854,2.854 0,1.575 -1.278,2.854 -2.854,2.854 -1.575,0 -2.854,-1.278 -2.854,-2.854 z"/>
     </g>
    </g>
    <path   style="fill:#303030" id="path3660" d="m 217.32631,89.10395 c -0.734,0 -1.336,-0.876618 -1.336,-1.946909 l 0,-37.601413 c 0,-1.07029 0.602,-1.946909 1.336,-1.946909 l 0.057,0 0,-29.196357 0,-1.016412 -0.699,0 -2.049,-2.983707 0,-1.038255 -0.713,0 -201.547996,0 -0.713,0 0,1.038255 -2.0480005,2.982251 -0.699,0 0,1.016412 0,29.197813 0.057,0 c 0.735,0 1.3370005,0.876619 1.3370005,1.946909 l 0,37.601413 c 0,1.070291 -0.6020005,1.946909 -1.3370005,1.946909 l -0.057,0 0,29.1949 0,1.01641 0.699,0 2.0490005,2.98371 0,1.03825 0.713,0 201.546996,0 0.713,0 0,-1.03825 2.049,-2.98371 0.699,0 0,-1.01641 0,-29.1949 -0.057,0 z"/>
    <g   id="g3662" transform="matrix(1,0,0,1.7138618,0,-19.027273)">
     <path   style="fill:#87ad34" id="path3664" d="m 208.663,71.382 c 0,2.206 -1.805,4.011 -4.012,4.011 l -182.531,0 c -2.206,0 -4.011,-1.805 -4.011,-4.011 l 0,-40.717 c 0,-2.206 1.805,-4.011 4.011,-4.011 l 182.531,0 c 2.207,0 4.012,1.805 4.012,4.011 l 0,40.717 z"/>
     <g   style="opacity:0.2" id="g3666">
      <path   style="fill:#22420d" id="path3668" d="m 208.655,30.646 0,40.755 c 0,-0.006 0.002,-0.012 0.002,-0.019 l 0,-40.717 c 0,-0.007 -0.002,-0.013 -0.002,-0.019 z M 22.12,26.654 c -2.205,0 -4.011,1.806 -4.011,4.011 l 0,40.717 c 0,2.205 1.806,4.011 4.011,4.011 l 2.326,0 c -2.206,0 -4.011,-1.806 -4.011,-4.011 l 0,-39.379 c 0,-2.206 1.805,-4.011 4.011,-4.011 l 183.165,0 c -0.735,-0.814 -1.787,-1.338 -2.964,-1.338 l -182.527,0 z"/>
     </g>
    </g>
    <g   id="g3670">
     <path   style="fill:#1a1a1a" id="path3672" d="m 210.358,18.618 c 0,-0.735 -0.602,-1.336 -1.336,-1.336 l -191.272,0 c -0.735,0 -1.336,0.602 -1.336,1.336 l 0,0.737 c 0,0.735 0.602,1.336 1.336,1.336 l 191.271,0 c 0.734,0 1.336,-0.602 1.336,-1.336 l 0,-0.737 z"/>
     <path   style="fill:#424242" id="path3674" d="m 209.69,19.812 c 0,-0.484 -0.432,-0.88 -0.957,-0.88 l -190.616,0 c -0.526,0 -0.957,0.396 -0.957,0.88 0,0.484 0.431,0.88 0.957,0.88 l 190.616,0 c 0.525,-0.001 0.957,-0.397 0.957,-0.88 z"/>
    </g>
    <g   id="g3676" transform="translate(0,34.079919)">
     <path   style="fill:#1a1a1a" id="path3678" d="m 210.358,82.056 c 0,-0.734 -0.602,-1.336 -1.336,-1.336 l -191.272,0 c -0.735,0 -1.336,0.602 -1.336,1.336 l 0,0.738 c 0,0.734 0.602,1.336 1.336,1.336 l 191.271,0 c 0.734,0 1.336,-0.602 1.336,-1.336 l 0,-0.738 z"/>
     <path   style="fill:#424242" id="path3680" d="m 209.69,83.251 c 0,-0.484 -0.432,-0.88 -0.957,-0.88 l -190.616,0 c -0.526,0 -0.957,0.396 -0.957,0.88 0,0.483 0.431,0.879 0.957,0.879 l 190.616,0 c 0.525,0 0.957,-0.396 0.957,-0.879 z"/>
    </g>
    <g   id="g3682" transform="matrix(1,0,0,1.4660138,0,-6.4972108)">
     <line  stroke-opacity="0.2" fill="none"  stroke="#f2f2f2" style="stroke-linecap:round;" id="line3684" y1="16.173" y2="14.06" x1="9.9370003" stroke-width="0.2358" x2="12.05"/>
     <line  stroke-opacity="0.2" fill="none"  stroke="#f2f2f2" style="stroke-linecap:round;" id="line3686" y1="87.976997" y2="85.862999" x1="12.072" stroke-width="0.2358" x2="9.9589996"/>
    </g>
    <g   id="g3688" transform="matrix(1,0,0,1.4692056,0,-6.5417123)">
     <line  stroke-opacity="0.2" fill="none"  stroke="#f2f2f2" style="stroke-linecap:round;" id="line3690" y1="16.173" y2="14.06" x1="216.823" stroke-width="0.2358" x2="214.709"/>
     <line  stroke-opacity="0.2" fill="none"  stroke="#f2f2f2" style="stroke-linecap:round;" id="line3692" y1="87.976997" y2="85.862999" x1="214.688" stroke-width="0.2358" x2="216.80099"/>
    </g>
    <path  stroke-opacity="0.4" fill="none"  stroke="#1a1a1a" id="path3694" stroke-width="1.84179378" d="m 208.4436,102.4486 c 0,3.74418 -1.80095,6.81082 -4.00102,6.81082 l -182.118167,0 c -2.200061,0 -4.002016,-3.06664 -4.002016,-6.81082 l 0,-69.138341 c 0,-3.744135 1.801955,-6.810759 4.002016,-6.810759 l 182.118167,0 c 2.20007,0 4.00102,3.066624 4.00102,6.810759 l 0,69.138341 z"/>
    <g   id="g3696">
     <path   style="fill:#9a916c" id="path3698" d="m 215.247,6.585 c 0,2.737 2.223,4.961 4.961,4.961 2.742,0 4.961,-2.224 4.961,-4.961 0,-2.741 -2.219,-4.96 -4.961,-4.96 -2.739,0 -4.961,2.219 -4.961,4.96 z m 2.105,0 c 0,-1.576 1.279,-2.854 2.855,-2.854 1.576,0 2.854,1.277 2.854,2.854 0,1.577 -1.277,2.854 -2.854,2.854 -1.577,0 -2.855,-1.278 -2.855,-2.854 z"/>
    </g>
    <g   id="g3700">
     <path   style="fill:#9a916c" id="path3702" d="m 17.02,0 0,4.75 c 0,1.33 1.078,2.41 2.41,2.41 1.33,0 2.41,-1.08 2.41,-2.41 l 0,-4.75 -4.82,0 z m 2.41,4.854 c -0.766,0 -1.387,-0.621 -1.387,-1.387 0,-0.766 0.621,-1.387 1.387,-1.387 0.766,0 1.387,0.621 1.387,1.387 0,0.766 -0.622,1.387 -1.387,1.387 z"/>
    </g>
    <g   id="g3704">
     <path   style="fill:#9a916c" id="path3706" d="m 24.22,0 0,4.75 c 0,1.33 1.078,2.41 2.41,2.41 1.33,0 2.41,-1.08 2.41,-2.41 l 0,-4.75 -4.82,0 z m 2.41,4.854 c -0.766,0 -1.387,-0.621 -1.387,-1.387 0,-0.766 0.621,-1.387 1.387,-1.387 0.766,0 1.387,0.621 1.387,1.387 0,0.766 -0.621,1.387 -1.387,1.387 z"/>
    </g>
    <g   id="g3708">
     <path   style="fill:#9a916c" id="path3710" d="m 31.42,0 0,4.75 c 0,1.33 1.078,2.41 2.41,2.41 1.33,0 2.41,-1.08 2.41,-2.41 l 0,-4.75 -4.82,0 z m 2.41,4.854 c -0.766,0 -1.387,-0.621 -1.387,-1.387 0,-0.766 0.621,-1.387 1.387,-1.387 0.766,0 1.387,0.621 1.387,1.387 0,0.766 -0.621,1.387 -1.387,1.387 z"/>
    </g>
    <g   id="g3712">
     <path   style="fill:#9a916c" id="path3714" d="m 38.62,0 0,4.75 c 0,1.33 1.078,2.41 2.41,2.41 1.33,0 2.41,-1.08 2.41,-2.41 l 0,-4.75 -4.82,0 z m 2.41,4.854 c -0.766,0 -1.387,-0.621 -1.387,-1.387 0,-0.766 0.621,-1.387 1.387,-1.387 0.766,0 1.387,0.621 1.387,1.387 0,0.766 -0.621,1.387 -1.387,1.387 z"/>
    </g>
    <g   id="g3716">
     <path   style="fill:#9a916c" id="path3718" d="m 45.819,0 0,4.75 c 0,1.33 1.078,2.41 2.41,2.41 1.33,0 2.41,-1.08 2.41,-2.41 l 0,-4.75 -4.82,0 z m 2.41,4.854 c -0.766,0 -1.387,-0.621 -1.387,-1.387 0,-0.766 0.621,-1.387 1.387,-1.387 0.766,0 1.387,0.621 1.387,1.387 0,0.766 -0.621,1.387 -1.387,1.387 z"/>
    </g>
    <g   id="g3720">
     <path   style="fill:#9a916c" id="path3722" d="m 53.02,0 0,4.75 c 0,1.33 1.078,2.41 2.41,2.41 1.33,0 2.41,-1.08 2.41,-2.41 l 0,-4.75 -4.82,0 z m 2.41,4.854 c -0.766,0 -1.387,-0.621 -1.387,-1.387 0,-0.766 0.621,-1.387 1.387,-1.387 0.766,0 1.387,0.621 1.387,1.387 0,0.766 -0.622,1.387 -1.387,1.387 z"/>
    </g>
    <g   id="g3724">
     <path   style="fill:#9a916c" id="path3726" d="m 60.22,0 0,4.75 c 0,1.33 1.078,2.41 2.41,2.41 1.33,0 2.41,-1.08 2.41,-2.41 l 0,-4.75 -4.82,0 z m 2.41,4.854 c -0.766,0 -1.387,-0.621 -1.387,-1.387 0,-0.766 0.621,-1.387 1.387,-1.387 0.766,0 1.387,0.621 1.387,1.387 0,0.766 -0.621,1.387 -1.387,1.387 z"/>
    </g>
    <g   id="g3728">
     <path   style="fill:#9a916c" id="path3730" d="m 67.42,0 0,4.75 c 0,1.33 1.078,2.41 2.41,2.41 1.33,0 2.41,-1.08 2.41,-2.41 l 0,-4.75 -4.82,0 z m 2.41,4.854 c -0.766,0 -1.387,-0.621 -1.387,-1.387 0,-0.766 0.621,-1.387 1.387,-1.387 0.766,0 1.387,0.621 1.387,1.387 0,0.766 -0.621,1.387 -1.387,1.387 z"/>
    </g>
    <g   id="g3732">
     <path   style="fill:#9a916c" id="path3734" d="m 74.619,0 0,4.75 c 0,1.33 1.078,2.41 2.41,2.41 1.33,0 2.41,-1.08 2.41,-2.41 l 0,-4.75 -4.82,0 z m 2.41,4.854 c -0.766,0 -1.387,-0.621 -1.387,-1.387 0,-0.766 0.621,-1.387 1.387,-1.387 0.766,0 1.387,0.621 1.387,1.387 0,0.766 -0.621,1.387 -1.387,1.387 z"/>
    </g>
    <g   id="g3736">
     <path   style="fill:#9a916c" id="path3738" d="m 81.819,0 0,4.75 c 0,1.33 1.078,2.41 2.41,2.41 1.33,0 2.41,-1.08 2.41,-2.41 l 0,-4.75 -4.82,0 z m 2.41,4.854 c -0.766,0 -1.387,-0.621 -1.387,-1.387 0,-0.766 0.621,-1.387 1.387,-1.387 0.766,0 1.387,0.621 1.387,1.387 0,0.766 -0.621,1.387 -1.387,1.387 z"/>
    </g>
    <g   id="g3740">
     <path   style="fill:#9a916c" id="path3742" d="m 89.02,0 0,4.75 c 0,1.33 1.078,2.41 2.41,2.41 1.33,0 2.41,-1.08 2.41,-2.41 l 0,-4.75 -4.82,0 z m 2.41,4.854 c -0.766,0 -1.387,-0.621 -1.387,-1.387 0,-0.766 0.621,-1.387 1.387,-1.387 0.766,0 1.387,0.621 1.387,1.387 0,0.766 -0.622,1.387 -1.387,1.387 z"/>
    </g>
    <g   id="g3744">
     <path   style="fill:#9a916c" id="path3746" d="m 96.22,0 0,4.75 c 0,1.33 1.078,2.41 2.41,2.41 1.33,0 2.41,-1.08 2.41,-2.41 l 0,-4.75 -4.82,0 z m 2.41,4.854 c -0.766,0 -1.387,-0.621 -1.387,-1.387 0,-0.766 0.621,-1.387 1.387,-1.387 0.766,0 1.387,0.621 1.387,1.387 0,0.766 -0.621,1.387 -1.387,1.387 z"/>
    </g>
    <g   id="g3748">
     <path   style="fill:#9a916c" id="path3750" d="m 103.419,0 0,4.75 c 0,1.33 1.078,2.41 2.41,2.41 1.33,0 2.41,-1.08 2.41,-2.41 l 0,-4.75 -4.82,0 z m 2.41,4.854 c -0.766,0 -1.387,-0.621 -1.387,-1.387 0,-0.766 0.621,-1.387 1.387,-1.387 0.766,0 1.387,0.621 1.387,1.387 0,0.766 -0.621,1.387 -1.387,1.387 z"/>
    </g>
    <g   id="g3752">
     <path   style="fill:#9a916c" id="path3754" d="m 110.619,0 0,4.75 c 0,1.33 1.078,2.41 2.41,2.41 1.33,0 2.411,-1.08 2.411,-2.41 l 0,-4.75 -4.821,0 z m 2.41,4.854 c -0.766,0 -1.387,-0.621 -1.387,-1.387 0,-0.766 0.621,-1.387 1.387,-1.387 0.766,0 1.387,0.621 1.387,1.387 0,0.766 -0.621,1.387 -1.387,1.387 z"/>
    </g>
    <g   id="g3756">
     <path   style="fill:#9a916c" id="path3758" d="m 117.819,0 0,4.75 c 0,1.33 1.078,2.41 2.41,2.41 1.33,0 2.41,-1.08 2.41,-2.41 l 0,-4.75 -4.82,0 z m 2.41,4.854 c -0.766,0 -1.387,-0.621 -1.387,-1.387 0,-0.766 0.621,-1.387 1.387,-1.387 0.766,0 1.387,0.621 1.387,1.387 0,0.766 -0.621,1.387 -1.387,1.387 z"/>
    </g>
    <g   id="g3760">
     <path   style="fill:#9a916c" id="path3762" d="m 125.02,0 0,4.75 c 0,1.33 1.078,2.41 2.41,2.41 1.33,0 2.41,-1.08 2.41,-2.41 l 0,-4.75 -4.82,0 z m 2.41,4.854 c -0.766,0 -1.387,-0.621 -1.387,-1.387 0,-0.766 0.621,-1.387 1.387,-1.387 0.766,0 1.387,0.621 1.387,1.387 0,0.766 -0.621,1.387 -1.387,1.387 z"/>
    </g>
    <g   id="g3764">
     <rect  width="10.027" x="27.790001" y="51.369999"  height="16.521999" style="fill:#1a1a1a;fill-opacity:0.1" id="rect3766"/>
     <rect  width="10.027" x="38.534" y="51.369999"  height="16.521999" style="fill:#1a1a1a;fill-opacity:0.1" id="rect3768"/>
     <rect  width="10.027" x="49.278" y="51.369999"  height="16.521999" style="fill:#1a1a1a;fill-opacity:0.1" id="rect3770"/>
     <rect  width="10.028" x="60.021999" y="51.369999"  height="16.521999" style="fill:#1a1a1a;fill-opacity:0.1" id="rect3772"/>
     <rect  width="10.027" x="70.767998" y="51.369999"  height="16.521999" style="fill:#1a1a1a;fill-opacity:0.1" id="rect3774"/>
     <rect  width="10.027" x="81.512001" y="51.369999"  height="16.521999" style="fill:#1a1a1a;fill-opacity:0.1" id="rect3776"/>
     <rect  width="10.027" x="92.255997" y="51.369999"  height="16.521999" style="fill:#1a1a1a;fill-opacity:0.1" id="rect3778"/>
     <rect  width="10.027" x="103" y="51.369999"  height="16.521999" style="fill:#1a1a1a;fill-opacity:0.1" id="rect3780"/>
     <rect  width="10.028" x="113.744" y="51.369999"  height="16.521999" style="fill:#1a1a1a;fill-opacity:0.1" id="rect3782"/>
     <rect  width="10.027" x="124.489" y="51.369999"  height="16.521999" style="fill:#1a1a1a;fill-opacity:0.1" id="rect3784"/>
     <rect  width="10.027" x="135.233" y="51.369999"  height="16.521999" style="fill:#1a1a1a;fill-opacity:0.1" id="rect3786"/>
     <rect  width="10.027" x="145.97701" y="51.369999"  height="16.521999" style="fill:#1a1a1a;fill-opacity:0.1" id="rect3788"/>
     <rect  width="10.027" x="156.72099" y="51.369999"  height="16.521999" style="fill:#1a1a1a;fill-opacity:0.1" id="rect3790"/>
     <rect  width="10.027" x="167.465" y="51.369999"  height="16.521999" style="fill:#1a1a1a;fill-opacity:0.1" id="rect3792"/>
     <rect  width="10.027" x="178.209" y="51.369999"  height="16.521999" style="fill:#1a1a1a;fill-opacity:0.1" id="rect3794"/>
     <rect  width="10.027" x="188.95399" y="51.369999"  height="16.521999" style="fill:#1a1a1a;fill-opacity:0.1" id="rect3796"/>
     <rect  width="10.027" x="27.790001" y="34.153999"  height="16.521999" style="fill:#1a1a1a;fill-opacity:0.1" id="rect3798"/>
     <rect  width="10.027" x="38.534" y="34.153999"  height="16.521999" style="fill:#1a1a1a;fill-opacity:0.1" id="rect3800"/>
     <rect  width="10.027" x="49.278" y="34.153999"  height="16.521999" style="fill:#1a1a1a;fill-opacity:0.1" id="rect3802"/>
     <rect  width="10.028" x="60.021999" y="34.153999"  height="16.521999" style="fill:#1a1a1a;fill-opacity:0.1" id="rect3804"/>
     <rect  width="10.027" x="70.767998" y="34.153999"  height="16.521999" style="fill:#1a1a1a;fill-opacity:0.1" id="rect3806"/>
     <rect  width="10.027" x="81.512001" y="34.153999"  height="16.521999" style="fill:#1a1a1a;fill-opacity:0.1" id="rect3808"/>
     <rect  width="10.027" x="92.255997" y="34.153999"  height="16.521999" style="fill:#1a1a1a;fill-opacity:0.1" id="rect3810"/>
     <rect  width="10.027" x="103" y="34.153999"  height="16.521999" style="fill:#1a1a1a;fill-opacity:0.1" id="rect3812"/>
     <rect  width="10.028" x="113.744" y="34.153999"  height="16.521999" style="fill:#1a1a1a;fill-opacity:0.1" id="rect3814"/>
     <rect  width="10.027" x="124.489" y="34.153999"  height="16.521999" style="fill:#1a1a1a;fill-opacity:0.1" id="rect3816"/>
     <rect  width="10.027" x="135.233" y="34.153999"  height="16.521999" style="fill:#1a1a1a;fill-opacity:0.1" id="rect3818"/>
     <rect  width="10.027" x="145.97701" y="34.153999"  height="16.521999" style="fill:#1a1a1a;fill-opacity:0.1" id="rect3820"/>
     <rect  width="10.027" x="156.72099" y="34.153999"  height="16.521999" style="fill:#1a1a1a;fill-opacity:0.1" id="rect3822"/>
     <rect  width="10.027" x="167.465" y="34.153999"  height="16.521999" style="fill:#1a1a1a;fill-opacity:0.1" id="rect3824"/>
     <rect  width="10.027" x="178.209" y="34.153999"  height="16.521999" style="fill:#1a1a1a;fill-opacity:0.1" id="rect3826"/>
     <rect  width="10.027" x="188.95399" y="34.153999"  height="16.521999" style="fill:#1a1a1a;fill-opacity:0.1" id="rect3828"/>
    </g>
    <g   id="g4015" transform="matrix(1,0,0,1.0210463,0,33.600723)">
     <rect  width="10.027" x="27.790001" y="51.369999"  height="16.521999" style="fill:#1a1a1a;fill-opacity:0.1" id="rect4017"/>
     <rect  width="10.027" x="38.534" y="51.369999"  height="16.521999" style="fill:#1a1a1a;fill-opacity:0.1" id="rect4019"/>
     <rect  width="10.027" x="49.278" y="51.369999"  height="16.521999" style="fill:#1a1a1a;fill-opacity:0.1" id="rect4021"/>
     <rect  width="10.028" x="60.021999" y="51.369999"  height="16.521999" style="fill:#1a1a1a;fill-opacity:0.1" id="rect4023"/>
     <rect  width="10.027" x="70.767998" y="51.369999"  height="16.521999" style="fill:#1a1a1a;fill-opacity:0.1" id="rect4025"/>
     <rect  width="10.027" x="81.512001" y="51.369999"  height="16.521999" style="fill:#1a1a1a;fill-opacity:0.1" id="rect4027"/>
     <rect  width="10.027" x="92.255997" y="51.369999"  height="16.521999" style="fill:#1a1a1a;fill-opacity:0.1" id="rect4029"/>
     <rect  width="10.027" x="103" y="51.369999"  height="16.521999" style="fill:#1a1a1a;fill-opacity:0.1" id="rect4031"/>
     <rect  width="10.028" x="113.744" y="51.369999"  height="16.521999" style="fill:#1a1a1a;fill-opacity:0.1" id="rect4033"/>
     <rect  width="10.027" x="124.489" y="51.369999"  height="16.521999" style="fill:#1a1a1a;fill-opacity:0.1" id="rect4035"/>
     <rect  width="10.027" x="135.233" y="51.369999"  height="16.521999" style="fill:#1a1a1a;fill-opacity:0.1" id="rect4037"/>
     <rect  width="10.027" x="145.97701" y="51.369999"  height="16.521999" style="fill:#1a1a1a;fill-opacity:0.1" id="rect4039"/>
     <rect  width="10.027" x="156.72099" y="51.369999"  height="16.521999" style="fill:#1a1a1a;fill-opacity:0.1" id="rect4041"/>
     <rect  width="10.027" x="167.465" y="51.369999"  height="16.521999" style="fill:#1a1a1a;fill-opacity:0.1" id="rect4043"/>
     <rect  width="10.027" x="178.209" y="51.369999"  height="16.521999" style="fill:#1a1a1a;fill-opacity:0.1" id="rect4045"/>
     <rect  width="10.027" x="188.95399" y="51.369999"  height="16.521999" style="fill:#1a1a1a;fill-opacity:0.1" id="rect4047"/>
     <rect  width="10.027" x="27.790001" y="34.153999"  height="16.521999" style="fill:#1a1a1a;fill-opacity:0.1" id="rect4049"/>
     <rect  width="10.027" x="38.534" y="34.153999"  height="16.521999" style="fill:#1a1a1a;fill-opacity:0.1" id="rect4051"/>
     <rect  width="10.027" x="49.278" y="34.153999"  height="16.521999" style="fill:#1a1a1a;fill-opacity:0.1" id="rect4053"/>
     <rect  width="10.028" x="60.021999" y="34.153999"  height="16.521999" style="fill:#1a1a1a;fill-opacity:0.1" id="rect4055"/>
     <rect  width="10.027" x="70.767998" y="34.153999"  height="16.521999" style="fill:#1a1a1a;fill-opacity:0.1" id="rect4057"/>
     <rect  width="10.027" x="81.512001" y="34.153999"  height="16.521999" style="fill:#1a1a1a;fill-opacity:0.1" id="rect4059"/>
     <rect  width="10.027" x="92.255997" y="34.153999"  height="16.521999" style="fill:#1a1a1a;fill-opacity:0.1" id="rect4061"/>
     <rect  width="10.027" x="103" y="34.153999"  height="16.521999" style="fill:#1a1a1a;fill-opacity:0.1" id="rect4063"/>
     <rect  width="10.028" x="113.744" y="34.153999"  height="16.521999" style="fill:#1a1a1a;fill-opacity:0.1" id="rect4065"/>
     <rect  width="10.027" x="124.489" y="34.153999"  height="16.521999" style="fill:#1a1a1a;fill-opacity:0.1" id="rect4067"/>
     <rect  width="10.027" x="135.233" y="34.153999"  height="16.521999" style="fill:#1a1a1a;fill-opacity:0.1" id="rect4069"/>
     <rect  width="10.027" x="145.97701" y="34.153999"  height="16.521999" style="fill:#1a1a1a;fill-opacity:0.1" id="rect4071"/>
     <rect  width="10.027" x="156.72099" y="34.153999"  height="16.521999" style="fill:#1a1a1a;fill-opacity:0.1" id="rect4073"/>
     <rect  width="10.027" x="167.465" y="34.153999"  height="16.521999" style="fill:#1a1a1a;fill-opacity:0.1" id="rect4075"/>
     <rect  width="10.027" x="178.209" y="34.153999"  height="16.521999" style="fill:#1a1a1a;fill-opacity:0.1" id="rect4077"/>
     <rect  width="10.027" x="188.95399" y="34.153999"  height="16.521999" style="fill:#1a1a1a;fill-opacity:0.1" id="rect4079"/>
    </g>
    <g   id="g3830" transform="matrix(1,0,0,1.5308994,0,-8.5081945)">
     <path   style="fill:#606060" id="path3832" d="m 9.454,65.223 0,20.797 0.268,0 0,-20.852 c -0.083,0.035 -0.178,0.037 -0.268,0.055 z"/>
     <path   style="fill:#606060" id="path3834" d="m 9.722,36.881 0,-20.855 -0.268,0 0,20.8 c 0.09,0.018 0.185,0.02 0.268,0.055 z"/>
    </g>
    <rect  width="202.96899" x="11.9" y="13.572"  height="0.26699999" style="fill:#606060" id="rect3836"/>
    <rect  width="202.96899" x="11.9" y="13.27"  height="0.30399999" style="fill:#212121" id="rect3838"/>
    <g   id="g3840" transform="matrix(1,0,0,1.5241364,0,-8.3998099)">
     <path   style="fill:#212121" id="path3842" d="m 9.208,36.776 c 0.087,0 0.164,0.034 0.247,0.05 l 0,-20.8 -0.303,0 0,20.75 0.056,0 z"/>
     <path   style="fill:#212121" id="path3844" d="m 9.208,65.272 -0.056,0 0,20.748 0.303,0 0,-20.798 c -0.083,0.016 -0.16,0.05 -0.247,0.05 z"/>
    </g>
    <rect  width="202.96899" x="11.9" y="122.87972"  height="0.303" style="fill:#212121" id="rect3846"/>
    <rect  width="202.96899" x="11.9" y="122.85492"  height="0.26699999" style="fill:#606060" id="rect3848"/>
    <g   id="g3850" transform="matrix(1,0,0,1.5173733,0,-8.2914252)">
     <path   style="fill:#212121" id="path3852" d="m 217.563,65.272 c -0.089,0 -0.166,-0.034 -0.25,-0.051 l 0,20.799 0.305,0 0,-20.748 -0.055,0 z"/>
     <path   style="fill:#212121" id="path3854" d="m 217.563,36.776 0.055,0 0,-20.75 -0.305,0 0,20.801 c 0.084,-0.016 0.161,-0.051 0.25,-0.051 z"/>
    </g>
    <g   id="g3856" transform="matrix(1,0,0,1.5376702,0,-8.6172399)">
     <path   style="fill:#606060" id="path3858" d="m 217.049,65.168 0,20.852 0.266,0 0,-20.798 c -0.089,-0.017 -0.184,-0.019 -0.266,-0.054 z"/>
     <path   style="fill:#606060" id="path3860" d="m 217.315,36.827 0,-20.8 -0.266,0 0,20.854 c 0.082,-0.035 0.177,-0.037 0.266,-0.054 z"/>
    </g>
   </g>
   <circle  cx="19.43"  cy="3.4679999" r="1.387" id="connector0pin" d="m 20.817,3.4679999 c 0,0.766019 -0.620981,1.387 -1.387,1.387 -0.766019,0 -1.387,-0.620981 -1.387,-1.387 C 18.043,2.701981 18.663981,2.081 19.43,2.081 c 0.766019,0 1.387,0.620981 1.387,1.3869999 z"/>
   <circle  cx="26.629999"  cy="3.4679999" r="1.387" id="connector1pin" d="m 28.016999,3.4679999 c 0,0.766019 -0.620981,1.387 -1.387,1.387 -0.766019,0 -1.387,-0.620981 -1.387,-1.387 0,-0.7660189 0.620981,-1.3869999 1.387,-1.3869999 0.766019,0 1.387,0.620981 1.387,1.3869999 z"/>
   <circle  cx="33.830002"  cy="3.4679999" r="1.387" id="connector2pin" d="m 35.217002,3.4679999 c 0,0.766019 -0.620981,1.387 -1.387,1.387 -0.766019,0 -1.387,-0.620981 -1.387,-1.387 0,-0.7660189 0.620981,-1.3869999 1.387,-1.3869999 0.766019,0 1.387,0.620981 1.387,1.3869999 z"/>
   <circle  cx="41.029999"  cy="3.4679999" r="1.387" id="connector3pin" d="m 42.416999,3.4679999 c 0,0.766019 -0.620981,1.387 -1.387,1.387 -0.766019,0 -1.387,-0.620981 -1.387,-1.387 0,-0.7660189 0.620981,-1.3869999 1.387,-1.3869999 0.766019,0 1.387,0.620981 1.387,1.3869999 z"/>
   <circle  cx="48.229"  cy="3.4679999" r="1.387" id="connector4pin" d="m 49.616,3.4679999 c 0,0.766019 -0.620981,1.387 -1.387,1.387 -0.766019,0 -1.387,-0.620981 -1.387,-1.387 C 46.842,2.701981 47.462981,2.081 48.229,2.081 c 0.766019,0 1.387,0.620981 1.387,1.3869999 z"/>
   <circle  cx="55.43"  cy="3.4679999" r="1.387" id="connector5pin" d="m 56.817,3.4679999 c 0,0.766019 -0.620981,1.387 -1.387,1.387 -0.766019,0 -1.387,-0.620981 -1.387,-1.387 C 54.043,2.701981 54.663981,2.081 55.43,2.081 c 0.766019,0 1.387,0.620981 1.387,1.3869999 z"/>
   <path   id="connector6pin" d="m 61.243,3.468 c 0,-0.766 0.621,-1.387 1.387,-1.387 0.766,0 1.387,0.621 1.387,1.387 0,0.766 -0.621,1.387 -1.387,1.387 -0.766,0 -1.387,-0.622 -1.387,-1.387"/>
   <circle  cx="69.830002"  cy="3.4679999" r="1.387" id="connector7pin" d="m 71.217002,3.4679999 c 0,0.766019 -0.620981,1.387 -1.387,1.387 -0.766019,0 -1.387,-0.620981 -1.387,-1.387 0,-0.7660189 0.620981,-1.3869999 1.387,-1.3869999 0.766019,0 1.387,0.620981 1.387,1.3869999 z"/>
   <circle  cx="77.028999"  cy="3.4679999" r="1.387" id="connector8pin" d="m 78.415999,3.4679999 c 0,0.766019 -0.620981,1.387 -1.387,1.387 -0.766019,0 -1.387,-0.620981 -1.387,-1.387 0,-0.7660189 0.620981,-1.3869999 1.387,-1.3869999 0.766019,0 1.387,0.620981 1.387,1.3869999 z"/>
   <circle  cx="84.228996"  cy="3.4679999" r="1.387" id="connector9pin" d="m 85.615996,3.4679999 c 0,0.766019 -0.620981,1.387 -1.387,1.387 -0.766019,0 -1.387,-0.620981 -1.387,-1.387 0,-0.7660189 0.620981,-1.3869999 1.387,-1.3869999 0.766019,0 1.387,0.620981 1.387,1.3869999 z"/>
   <circle  cx="91.43"  cy="3.4679999" r="1.387" id="connector10pin" d="m 92.817,3.4679999 c 0,0.766019 -0.620981,1.387 -1.387,1.387 -0.766019,0 -1.387,-0.620981 -1.387,-1.387 C 90.043,2.701981 90.663981,2.081 91.43,2.081 c 0.766019,0 1.387,0.620981 1.387,1.3869999 z"/>
   <circle  cx="98.629997"  cy="3.4679999" r="1.387" id="connector11pin" d="m 100.017,3.4679999 c 0,0.766019 -0.620984,1.387 -1.387003,1.387 -0.766019,0 -1.387,-0.620981 -1.387,-1.387 0,-0.7660189 0.620981,-1.3869999 1.387,-1.3869999 0.766019,0 1.387003,0.620981 1.387003,1.3869999 z"/>
   <circle  cx="105.829"  cy="3.4679999" r="1.387" id="connector12pin" d="m 107.216,3.4679999 c 0,0.766019 -0.62098,1.387 -1.387,1.387 -0.76602,0 -1.387,-0.620981 -1.387,-1.387 0,-0.7660189 0.62098,-1.3869999 1.387,-1.3869999 0.76602,0 1.387,0.620981 1.387,1.3869999 z"/>
   <circle  cx="113.029"  cy="3.4679999" r="1.387" id="connector13pin" d="m 114.416,3.4679999 c 0,0.766019 -0.62098,1.387 -1.387,1.387 -0.76602,0 -1.387,-0.620981 -1.387,-1.387 0,-0.7660189 0.62098,-1.3869999 1.387,-1.3869999 0.76602,0 1.387,0.620981 1.387,1.3869999 z"/>
   <circle  cx="120.229"  cy="3.4679999" r="1.387" id="connector14pin" d="m 121.616,3.4679999 c 0,0.766019 -0.62098,1.387 -1.387,1.387 -0.76602,0 -1.387,-0.620981 -1.387,-1.387 0,-0.7660189 0.62098,-1.3869999 1.387,-1.3869999 0.76602,0 1.387,0.620981 1.387,1.3869999 z"/>
   <circle  cx="127.43"  cy="3.4679999" r="1.387" id="connector15pin" d="m 128.817,3.4679999 c 0,0.766019 -0.62098,1.387 -1.387,1.387 -0.76602,0 -1.387,-0.620981 -1.387,-1.387 0,-0.7660189 0.62098,-1.3869999 1.387,-1.3869999 0.76602,0 1.387,0.620981 1.387,1.3869999 z"/>
  </g>
  <g   id="Ebene_2"/>
 </g>
</svg>
