<?xml version='1.0' encoding='UTF-8' standalone='no'?>
<!-- Created with Fritzing (http://www.fritzing.org/) -->
<svg xmlns="http://www.w3.org/2000/svg"  width="1.65354in" x="0in" version="1.2" y="0in" height="0.748028in" viewBox="0 0 1653.54 748.028" baseProfile="tiny" id="0">
 <desc   id="0.0">
  <referenceFile   id="0.0.0">LCM1602_IIC.svg</referenceFile>
 </desc>
 <g   id="copper0">
  <g   id="0.2.0">
   <circle  fill="none" cx="86.8471"  cy="283.472" stroke="#FFBF00" id="connector21pin" r="27.5" stroke-width="20"/>
   <circle  fill="none" cx="86.8471"  cy="383.458" stroke="#FFBF00" id="connector20pin" r="27.5" stroke-width="20"/>
   <circle  fill="none" cx="86.8471"  cy="283.472" stroke="#FFBF00" id="connector21pin_1_" r="27.5" stroke-width="20"/>
   <circle  fill="none" cx="86.8471"  cy="383.458" stroke="#FFBF00" id="connector20pin_1_" r="27.5" stroke-width="20"/>
  </g>
  <g   id="0.2.1">
   <circle  fill="none" cx="1186.86"  cy="76.0556" stroke="#FFBF00" id="connector4pin" r="27.4861" stroke-width="20"/>
   <circle  fill="none" cx="1086.86"  cy="76.0556" stroke="#FFBF00" id="connector5pin" r="27.5" stroke-width="20"/>
   <circle  fill="none" cx="986.874"  cy="76.0556" stroke="#FFBF00" id="connector6pin" r="27.5" stroke-width="20"/>
   <circle  fill="none" cx="486.861"  cy="76.0695" stroke="#FFBF00" r="27.5" id="0.1.1.3" stroke-width="20"/>
   <circle  fill="none" cx="886.86"  cy="76.0556" stroke="#FFBF00" id="connector7pin" r="27.4861" stroke-width="20"/>
   <circle  fill="none" cx="386.861"  cy="76.0695" stroke="#FFBF00" r="27.5" id="0.1.1.5" stroke-width="20"/>
   <circle  fill="none" cx="786.86"  cy="76.0556" stroke="#FFBF00" id="connector8pin" r="27.5" stroke-width="20"/>
   <circle  fill="none" cx="286.847"  cy="76.0695" stroke="#FFBF00" id="connector13pin" r="27.5" stroke-width="20"/>
   <circle  fill="none" cx="686.86"  cy="76.0556" stroke="#FFBF00" id="connector9pin" r="27.5" stroke-width="20"/>
   <circle  fill="none" cx="186.847"  cy="76.0695" stroke="#FFBF00" r="27.5" id="0.1.1.9" stroke-width="20"/>
   <circle  fill="none" cx="586.861"  cy="76.0556" stroke="#FFBF00" id="connector10pin" r="27.5" stroke-width="20"/>
   <circle  fill="none" cx="86.8471"  cy="76.0695" stroke="#FFBF00" r="27.5" id="0.1.1.11" stroke-width="20"/>
   <rect  width="55.0138" x="1559.35" y="48.5695" fill="none"  height="55" stroke="#FFBF00" id="square" stroke-width="20"/>
   <circle  fill="none" cx="1586.86"  cy="76.0556" stroke="#FFBF00" id="connector0pin" r="27.5" stroke-width="20"/>
   <circle  fill="none" cx="1486.87"  cy="76.0556" stroke="#FFBF00" id="connector1pin" r="27.5" stroke-width="20"/>
   <circle  fill="none" cx="1386.86"  cy="76.0556" stroke="#FFBF00" id="connector2pin" r="27.4861" stroke-width="20"/>
   <circle  fill="none" cx="1286.86"  cy="76.0556" stroke="#FFBF00" id="connector3pin" r="27.5" stroke-width="20"/>
   <rect  width="55.0138" x="1559.35" y="48.5695" fill="none"  height="55" stroke="#FFBF00" id="square_1_" stroke-width="20"/>
   <circle  fill="none" cx="1586.86"  cy="76.0556" stroke="#FFBF00" id="connector0pin_1_" r="27.5" stroke-width="20"/>
   <circle  fill="none" cx="1486.87"  cy="76.0556" stroke="#FFBF00" id="connector1pin_1_" r="27.5" stroke-width="20"/>
   <circle  fill="none" cx="1386.86"  cy="76.0556" stroke="#FFBF00" id="connector2pin_1_" r="27.4861" stroke-width="20"/>
   <circle  fill="none" cx="1286.86"  cy="76.0556" stroke="#FFBF00" id="connector3pin_1_" r="27.5" stroke-width="20"/>
   <circle  fill="none" cx="1186.86"  cy="76.0556" stroke="#FFBF00" id="connector4pin_1_" r="27.4861" stroke-width="20"/>
   <circle  fill="none" cx="1086.86"  cy="76.0556" stroke="#FFBF00" id="connector5pin_1_" r="27.5" stroke-width="20"/>
   <circle  fill="none" cx="986.874"  cy="76.0556" stroke="#FFBF00" id="connector6pin_1_" r="27.5" stroke-width="20"/>
   <circle  fill="none" cx="486.861"  cy="76.0695" stroke="#FFBF00" id="connector11pin" r="27.5" stroke-width="20"/>
   <circle  fill="none" cx="886.86"  cy="76.0556" stroke="#FFBF00" id="connector7pin_1_" r="27.4861" stroke-width="20"/>
   <circle  fill="none" cx="386.861"  cy="76.0695" stroke="#FFBF00" id="connector12pin" r="27.5" stroke-width="20"/>
   <circle  fill="none" cx="786.86"  cy="76.0556" stroke="#FFBF00" id="connector8pin_1_" r="27.5" stroke-width="20"/>
   <circle  fill="none" cx="286.847"  cy="76.0695" stroke="#FFBF00" id="connector13pin_1_" r="27.5" stroke-width="20"/>
   <circle  fill="none" cx="686.86"  cy="76.0556" stroke="#FFBF00" id="connector9pin_1_" r="27.5" stroke-width="20"/>
   <circle  fill="none" cx="186.847"  cy="76.0695" stroke="#FFBF00" id="connector14pin" r="27.5" stroke-width="20"/>
   <circle  fill="none" cx="586.861"  cy="76.0556" stroke="#FFBF00" id="connector10pin_1_" r="27.5" stroke-width="20"/>
   <circle  fill="none" cx="86.8471"  cy="76.0695" stroke="#FFBF00" id="connector15pin" r="27.5" stroke-width="20"/>
  </g>
  <g   id="0.2.2">
   <rect  width="54.9999" x="1559.36" y="248.556" fill="none"  height="55.0139" stroke="#FFBF00" id="square_3_" stroke-width="20"/>
   <circle  fill="none" cx="1586.86"  cy="276.056" stroke="#FFBF00" id="connector0pin_3_" r="27.5" stroke-width="20"/>
   <circle  fill="none" cx="1586.86"  cy="376.056" stroke="#FFBF00" id="connector1pin_3_" r="27.5" stroke-width="20"/>
   <circle  fill="none" cx="1586.86"  cy="476.056" stroke="#FFBF00" id="connector2pin_3_" r="27.5" stroke-width="20"/>
   <circle  fill="none" cx="1586.86"  cy="576.07" stroke="#FFBF00" id="connector3pin_3_" r="27.5" stroke-width="20"/>
   <rect  width="54.9999" x="1559.36" y="248.556" fill="none"  height="55.0139" stroke="#FFBF00" id="square_2_" stroke-width="20"/>
   <circle  fill="none" cx="1586.86"  cy="276.056" stroke="#FFBF00" id="connector16pin" r="27.5" stroke-width="20"/>
   <circle  fill="none" cx="1586.86"  cy="376.056" stroke="#FFBF00" id="connector17pin" r="27.5" stroke-width="20"/>
   <circle  fill="none" cx="1586.86"  cy="476.056" stroke="#FFBF00" id="connector18pin" r="27.5" stroke-width="20"/>
   <circle  fill="none" cx="1586.86"  cy="576.07" stroke="#FFBF00" id="connector19pin" r="27.5" stroke-width="20"/>
  </g>
 </g>
 <g   id="silkscreen">
  <line  fill="none"  stroke="#FFFFFF" id="0.1.0" y1="748.028" stroke-width="20" x1="1653.54" y2="748.028" x2="0"/>
  <line  fill="none"  stroke="#FFFFFF" id="0.1.1" y1="0" stroke-width="20" x1="1653.54" y2="0" x2="0"/>
  <line  fill="none"  stroke="#FFFFFF" id="0.1.2" y1="748.028" stroke-width="20" x1="0" y2="0" x2="0"/>
  <line  fill="none"  stroke="#FFFFFF" id="0.1.3" y1="236.208" stroke-width="20" x1="1653.54" y2="0" x2="1653.54"/>
  <line  fill="none"  stroke="#FFFFFF" id="0.1.4" y1="748.028" stroke-width="20" x1="1653.54" y2="511.806" x2="1653.54"/>
 </g>
</svg>
